<svg version="1.1" id="Layer_1" xmlns="http://www.w3.org/2000/svg"
	xmlns:xlink="http://www.w3.org/1999/xlink" x="0px" y="0px"
	width="100%" viewBox="0 0 1022 550" enable-background="new 0 0 1022 550" xml:space="preserve">
<path fill="none" opacity="1.000000" stroke="none" 
	d="
M583.000000,551.000000 
	C388.666656,551.000000 194.833328,551.000000 1.000000,551.000000 
	C1.000000,367.666656 1.000000,184.333328 1.000000,1.000000 
	C341.666656,1.000000 682.333313,1.000000 1023.000000,1.000000 
	C1023.000000,184.333328 1023.000000,367.666656 1023.000000,551.000000 
	C876.500000,551.000000 730.000000,551.000000 583.000000,551.000000 
M747.035645,285.830505 
	C748.041870,284.968842 748.974609,283.496857 750.068787,283.365021 
	C752.857483,283.029053 755.721863,283.207733 758.549622,283.328918 
	C770.715881,283.850342 776.718445,289.526245 777.921692,301.702759 
	C778.183167,304.349182 778.172668,307.027161 778.197266,309.691467 
	C778.309570,321.851929 778.258423,334.015808 778.545227,346.171844 
	C778.662476,351.143066 779.442505,356.102570 780.004517,361.057953 
	C780.343811,364.049805 782.011902,365.141663 785.114563,365.032227 
	C791.937561,364.791504 798.773560,364.919800 805.604248,364.901459 
	C807.984375,364.895081 810.364441,364.900452 811.834351,364.900452 
	C811.211365,354.824341 810.423401,345.622437 810.127808,336.404694 
	C809.759583,324.919891 810.098206,313.408356 809.575745,301.933716 
	C809.047913,290.341370 806.049255,279.528229 796.587646,271.680786 
	C794.515991,269.962555 792.142273,268.608490 789.442505,266.769989 
	C801.138062,260.604645 807.948059,251.085281 808.600037,238.778076 
	C809.370422,224.237518 809.360962,209.472702 807.689331,195.036713 
	C805.988342,180.347061 796.487488,170.758591 781.936951,167.211777 
	C775.850098,165.728043 769.467102,164.982086 763.196045,164.828522 
	C749.209717,164.486038 735.209229,164.727341 721.214478,164.730652 
	C719.451843,164.731079 717.689270,164.730728 715.903076,164.730728 
	C715.903076,231.753815 715.903076,298.258850 715.903076,364.582825 
	C726.570801,364.582825 736.633240,364.582825 747.047974,364.582825 
	C747.047974,338.383514 747.047974,312.579803 747.035645,285.830505 
M926.040527,342.417267 
	C915.097290,314.750427 904.207886,287.062012 893.146179,259.442596 
	C891.678589,255.778137 891.648071,252.807709 893.465698,249.151428 
	C907.297424,221.327347 920.887817,193.383240 934.581665,165.418732 
	C934.068481,165.166428 933.630859,164.765686 933.189819,164.761856 
	C923.867615,164.680847 914.542847,164.539429 905.225403,164.735992 
	C904.093323,164.759888 902.558655,166.440613 901.955627,167.708008 
	C892.239563,188.127548 882.645752,208.605270 873.021118,229.068314 
	C869.678406,236.175232 866.327148,243.278122 862.979858,250.382858 
	C862.625671,250.293213 862.271484,250.203568 861.917297,250.113907 
	C861.917297,221.624542 861.917297,193.135178 861.917297,164.959595 
	C851.163635,164.959595 840.931396,164.959595 830.844788,164.959595 
	C830.844788,231.757782 830.844788,298.148682 830.844788,364.644958 
	C841.419800,364.644958 851.651123,364.644958 862.140137,364.644958 
	C862.140137,347.819977 862.883423,331.298584 861.885376,314.883087 
	C861.190613,303.455414 866.583191,295.041382 871.653381,285.704315 
	C872.150208,286.315918 872.434998,286.534576 872.544739,286.820465 
	C881.356384,309.781403 890.176758,332.739105 898.942322,355.717712 
	C902.438477,364.882507 902.382385,364.896271 911.834839,364.893524 
	C917.831421,364.891754 923.828125,364.942078 929.824463,364.911316 
	C931.222351,364.904083 932.619019,364.662537 934.720276,364.461426 
	C931.750793,356.932465 929.031494,350.037720 926.040527,342.417267 
M612.145386,229.626541 
	C604.999390,274.545593 597.853394,319.464661 590.620178,364.931610 
	C599.390381,364.931610 607.337280,364.794006 615.275330,364.998138 
	C618.532776,365.081909 619.874634,364.341309 620.311096,360.749695 
	C621.628723,349.909180 623.480957,339.133606 625.090515,328.558105 
	C638.306213,328.558105 650.911804,328.558105 663.686768,328.558105 
	C665.499084,340.740509 667.274902,352.677338 669.045349,364.578491 
	C679.816711,364.578491 690.060486,364.578491 700.942749,364.578491 
	C690.232910,297.723816 679.595032,231.318756 668.914062,164.644272 
	C654.051941,164.644272 639.570618,164.558716 625.095398,164.817215 
	C624.013245,164.836548 622.269653,167.199371 622.023010,168.672043 
	C618.670837,188.682861 615.528992,208.728912 612.145386,229.626541 
M466.422302,351.890228 
	C477.674438,337.055023 478.512909,320.144531 475.428864,302.828003 
	C472.141632,284.370544 460.329193,271.030121 447.271576,258.544556 
	C438.987854,250.623734 430.580841,242.725067 423.204681,233.992447 
	C416.036224,225.505707 413.595184,215.055786 415.880035,203.981934 
	C417.772369,194.810471 422.741882,191.132401 431.711426,191.554276 
	C440.588806,191.971817 444.775238,195.769196 446.016815,205.018188 
	C446.627838,209.569611 446.706757,214.192459 447.030396,218.839630 
	C456.937500,218.839630 466.516266,218.839630 477.372345,218.839630 
	C476.207764,209.917480 476.007385,201.169815 473.789551,192.967651 
	C469.790314,178.177292 460.461639,167.574417 444.962402,164.239548 
	C438.057526,162.753876 430.710327,162.214691 423.665924,162.706818 
	C406.473846,163.907944 393.806213,172.137009 387.460876,188.759262 
	C382.291229,202.301666 382.375458,216.130829 385.732849,229.981323 
	C389.698914,246.342911 400.147430,258.575439 411.938049,269.873840 
	C419.385498,277.010406 427.073273,283.925934 434.129852,291.432617 
	C441.835785,299.630066 445.787628,309.576660 445.023499,321.023956 
	C444.623901,327.011078 443.187347,332.618530 437.348450,335.815613 
	C425.917053,342.074860 413.618774,335.331299 412.963898,322.320038 
	C412.673859,316.558136 412.914948,310.769440 412.914948,304.612976 
	C402.636169,304.612976 393.071014,304.612976 382.135803,304.612976 
	C382.991852,314.632080 382.823090,324.696136 384.890961,334.277435 
	C388.829041,352.524536 400.436279,363.607910 419.316559,366.223663 
	C436.914825,368.661835 453.252808,366.630859 466.422302,351.890228 
M580.258362,271.698303 
	C582.545471,265.517731 586.357056,259.448303 586.817444,253.134521 
	C587.940186,237.736099 587.768311,222.220978 587.558899,206.760406 
	C587.490356,201.699493 586.265137,196.466003 584.595947,191.648544 
	C578.342712,173.600769 564.268982,165.893051 546.278809,164.964340 
	C531.654663,164.209412 516.963684,164.749695 502.302307,164.717514 
	C499.884918,164.712204 497.467529,164.716751 495.198242,164.716751 
	C495.198242,231.691132 495.198242,298.217529 495.198242,364.674866 
	C505.718079,364.674866 515.792236,364.674866 526.279846,364.674866 
	C526.279846,339.561707 526.279846,314.804321 526.279846,289.681854 
	C532.991943,289.681854 539.310913,290.012115 545.583679,289.614349 
	C559.407959,288.737701 571.656311,284.425140 580.258362,271.698303 
M167.223251,203.275757 
	C183.242508,219.161255 199.261765,235.046768 215.370422,251.020920 
	C227.773819,238.654572 239.640335,226.745407 251.616455,214.947510 
	C254.077194,212.523392 253.389740,210.997635 251.217133,208.846313 
	C233.820602,191.620224 216.607758,174.207535 199.095413,157.101028 
	C197.114853,155.166367 193.636383,153.845444 190.836914,153.817780 
	C172.378113,153.635254 153.915085,153.892548 135.453339,153.989349 
	C129.858444,154.018677 124.263237,153.993896 118.498322,153.993896 
	C134.731140,170.414963 150.726547,186.595871 167.223251,203.275757 
M238.171661,331.675018 
	C242.324326,327.579895 246.347214,323.340851 250.674225,319.439056 
	C253.670456,316.737244 253.994370,314.742432 250.832611,311.809509 
	C244.607468,306.034943 238.727478,299.888794 232.689957,293.911285 
	C226.947144,288.225525 221.185471,282.558868 215.759766,277.207001 
	C183.467957,309.873199 151.656570,342.053436 120.210007,373.864594 
	C142.802414,373.864594 166.276596,373.751068 189.747772,373.966522 
	C194.105148,374.006500 197.263016,372.793640 200.274384,369.725586 
	C212.647812,357.118927 225.193527,344.681335 238.171661,331.675018 
M298.419495,271.919678 
	C299.734924,270.646545 300.948730,269.242523 302.385925,268.126160 
	C305.939636,265.365723 305.997223,263.226471 302.512665,259.886292 
	C291.824432,249.641006 281.509460,239.003860 271.158813,228.412109 
	C269.932983,227.157715 269.385132,225.240707 268.523010,223.630859 
	C268.429626,224.581253 268.336273,225.531647 268.242920,226.482040 
	C255.085327,239.266983 241.927750,252.051926 229.423492,264.202026 
	C241.862595,277.085388 254.432510,290.104248 267.021545,303.142883 
	C277.637115,292.598999 287.786743,282.517883 298.419495,271.919678 
M338.824951,323.500061 
	C338.835480,315.838257 338.936493,308.174774 338.792358,300.515900 
	C338.756653,298.618011 338.532837,296.136719 337.358704,294.946075 
	C331.431519,288.935669 325.161682,283.263092 318.865631,277.334137 
	C318.864319,277.334839 318.345490,277.478485 318.011658,277.808990 
	C306.298553,289.406128 294.638977,301.057648 282.875824,312.603668 
	C280.356995,315.076019 281.272339,316.684326 283.375671,318.766144 
	C300.890839,336.102081 318.326172,353.518677 335.803070,370.893311 
	C336.516083,371.602112 337.403381,372.135590 338.827423,373.222412 
	C338.827423,356.411804 338.827423,340.455933 338.824951,323.500061 
M334.537445,235.971588 
	C338.042389,233.341904 339.016174,229.904907 338.947906,225.521347 
	C338.698822,209.529831 338.852753,193.532043 338.854248,177.536621 
	C338.854950,170.120712 338.854370,162.704803 338.854370,154.963898 
	C337.856323,155.305298 337.310791,155.329010 337.023376,155.613510 
	C318.794373,173.658264 300.597900,191.735886 282.361725,209.773422 
	C280.116425,211.994278 281.310425,213.489731 283.032501,215.173447 
	C289.226196,221.229126 295.363281,227.342728 301.523651,233.432526 
	C307.419098,239.260468 313.316833,245.086075 319.568146,251.263016 
	C324.497772,246.222580 329.261688,241.351578 334.537445,235.971588 
z"/>
<path fill="#FCFCFC" opacity="1.000000" stroke="none" 
	d="
M747.041809,286.303284 
	C747.047974,312.579803 747.047974,338.383514 747.047974,364.582825 
	C736.633240,364.582825 726.570801,364.582825 715.903076,364.582825 
	C715.903076,298.258850 715.903076,231.753815 715.903076,164.730728 
	C717.689270,164.730728 719.451843,164.731079 721.214478,164.730652 
	C735.209229,164.727341 749.209717,164.486038 763.196045,164.828522 
	C769.467102,164.982086 775.850098,165.728043 781.936951,167.211777 
	C796.487488,170.758591 805.988342,180.347061 807.689331,195.036713 
	C809.360962,209.472702 809.370422,224.237518 808.600037,238.778076 
	C807.948059,251.085281 801.138062,260.604645 789.442505,266.769989 
	C792.142273,268.608490 794.515991,269.962555 796.587646,271.680786 
	C806.049255,279.528229 809.047913,290.341370 809.575745,301.933716 
	C810.098206,313.408356 809.759583,324.919891 810.127808,336.404694 
	C810.423401,345.622437 811.211365,354.824341 811.834351,364.900452 
	C810.364441,364.900452 807.984375,364.895081 805.604248,364.901459 
	C798.773560,364.919800 791.937561,364.791504 785.114563,365.032227 
	C782.011902,365.141663 780.343811,364.049805 780.004517,361.057953 
	C779.442505,356.102570 778.662476,351.143066 778.545227,346.171844 
	C778.258423,334.015808 778.309570,321.851929 778.197266,309.691467 
	C778.172668,307.027161 778.183167,304.349182 777.921692,301.702759 
	C776.718445,289.526245 770.715881,283.850342 758.549622,283.328918 
	C755.721863,283.207733 752.857483,283.029053 750.068787,283.365021 
	C748.974609,283.496857 748.041870,284.968842 747.041809,286.303284 
M747.044861,208.503601 
	C747.044861,223.897842 747.044861,239.292099 747.044861,254.888458 
	C751.901733,254.888458 756.212219,255.144821 760.482056,254.837021 
	C770.485474,254.115921 776.745422,249.118698 777.430603,239.238785 
	C778.207520,228.037766 777.750000,216.685013 776.929749,205.463974 
	C776.432068,198.655273 772.144592,194.727066 765.634216,194.105972 
	C759.611511,193.531387 753.490845,193.983566 747.045715,193.983566 
	C747.045715,198.596832 747.045715,203.051468 747.044861,208.503601 
z"/>
<path fill="#FDFDFD" opacity="1.000000" stroke="none" 
	d="
M926.176331,342.780090 
	C929.031494,350.037720 931.750793,356.932465 934.720276,364.461426 
	C932.619019,364.662537 931.222351,364.904083 929.824463,364.911316 
	C923.828125,364.942078 917.831421,364.891754 911.834839,364.893524 
	C902.382385,364.896271 902.438477,364.882507 898.942322,355.717712 
	C890.176758,332.739105 881.356384,309.781403 872.544739,286.820465 
	C872.434998,286.534576 872.150208,286.315918 871.653381,285.704315 
	C866.583191,295.041382 861.190613,303.455414 861.885376,314.883087 
	C862.883423,331.298584 862.140137,347.819977 862.140137,364.644958 
	C851.651123,364.644958 841.419800,364.644958 830.844788,364.644958 
	C830.844788,298.148682 830.844788,231.757782 830.844788,164.959595 
	C840.931396,164.959595 851.163635,164.959595 861.917297,164.959595 
	C861.917297,193.135178 861.917297,221.624542 861.917297,250.113907 
	C862.271484,250.203568 862.625671,250.293213 862.979858,250.382858 
	C866.327148,243.278122 869.678406,236.175232 873.021118,229.068314 
	C882.645752,208.605270 892.239563,188.127548 901.955627,167.708008 
	C902.558655,166.440613 904.093323,164.759888 905.225403,164.735992 
	C914.542847,164.539429 923.867615,164.680847 933.189819,164.761856 
	C933.630859,164.765686 934.068481,165.166428 934.581665,165.418732 
	C920.887817,193.383240 907.297424,221.327347 893.465698,249.151428 
	C891.648071,252.807709 891.678589,255.778137 893.146179,259.442596 
	C904.207886,287.062012 915.097290,314.750427 926.176331,342.780090 
z"/>
<path fill="#FCFCFC" opacity="1.000000" stroke="none" 
	d="
M612.240356,229.196411 
	C615.528992,208.728912 618.670837,188.682861 622.023010,168.672043 
	C622.269653,167.199371 624.013245,164.836548 625.095398,164.817215 
	C639.570618,164.558716 654.051941,164.644272 668.914062,164.644272 
	C679.595032,231.318756 690.232910,297.723816 700.942749,364.578491 
	C690.060486,364.578491 679.816711,364.578491 669.045349,364.578491 
	C667.274902,352.677338 665.499084,340.740509 663.686768,328.558105 
	C650.911804,328.558105 638.306213,328.558105 625.090515,328.558105 
	C623.480957,339.133606 621.628723,349.909180 620.311096,360.749695 
	C619.874634,364.341309 618.532776,365.081909 615.275330,364.998138 
	C607.337280,364.794006 599.390381,364.931610 590.620178,364.931610 
	C597.853394,319.464661 604.999390,274.545593 612.240356,229.196411 
M631.890991,283.268860 
	C630.999390,289.127228 630.107788,294.985596 629.182312,301.066528 
	C639.339294,301.066528 649.055542,301.066528 659.294128,301.066528 
	C654.441833,268.113190 649.647888,235.556290 644.853943,202.999420 
	C644.346680,203.051941 643.839417,203.104477 643.332153,203.156998 
	C643.021179,205.895370 642.783813,208.644440 642.387634,211.370438 
	C638.946716,235.047562 635.477356,258.720551 631.890991,283.268860 
z"/>
<path fill="#FCFCFC" opacity="1.000000" stroke="none" 
	d="
M466.195679,352.167114 
	C453.252808,366.630859 436.914825,368.661835 419.316559,366.223663 
	C400.436279,363.607910 388.829041,352.524536 384.890961,334.277435 
	C382.823090,324.696136 382.991852,314.632080 382.135803,304.612976 
	C393.071014,304.612976 402.636169,304.612976 412.914948,304.612976 
	C412.914948,310.769440 412.673859,316.558136 412.963898,322.320038 
	C413.618774,335.331299 425.917053,342.074860 437.348450,335.815613 
	C443.187347,332.618530 444.623901,327.011078 445.023499,321.023956 
	C445.787628,309.576660 441.835785,299.630066 434.129852,291.432617 
	C427.073273,283.925934 419.385498,277.010406 411.938049,269.873840 
	C400.147430,258.575439 389.698914,246.342911 385.732849,229.981323 
	C382.375458,216.130829 382.291229,202.301666 387.460876,188.759262 
	C393.806213,172.137009 406.473846,163.907944 423.665924,162.706818 
	C430.710327,162.214691 438.057526,162.753876 444.962402,164.239548 
	C460.461639,167.574417 469.790314,178.177292 473.789551,192.967651 
	C476.007385,201.169815 476.207764,209.917480 477.372345,218.839630 
	C466.516266,218.839630 456.937500,218.839630 447.030396,218.839630 
	C446.706757,214.192459 446.627838,209.569611 446.016815,205.018188 
	C444.775238,195.769196 440.588806,191.971817 431.711426,191.554276 
	C422.741882,191.132401 417.772369,194.810471 415.880035,203.981934 
	C413.595184,215.055786 416.036224,225.505707 423.204681,233.992447 
	C430.580841,242.725067 438.987854,250.623734 447.271576,258.544556 
	C460.329193,271.030121 472.141632,284.370544 475.428864,302.828003 
	C478.512909,320.144531 477.674438,337.055023 466.195679,352.167114 
z"/>
<path fill="#FDFDFE" opacity="1.000000" stroke="none" 
	d="
M580.078003,272.010864 
	C571.656311,284.425140 559.407959,288.737701 545.583679,289.614349 
	C539.310913,290.012115 532.991943,289.681854 526.279846,289.681854 
	C526.279846,314.804321 526.279846,339.561707 526.279846,364.674866 
	C515.792236,364.674866 505.718079,364.674866 495.198242,364.674866 
	C495.198242,298.217529 495.198242,231.691132 495.198242,164.716751 
	C497.467529,164.716751 499.884918,164.712204 502.302307,164.717514 
	C516.963684,164.749695 531.654663,164.209412 546.278809,164.964340 
	C564.268982,165.893051 578.342712,173.600769 584.595947,191.648544 
	C586.265137,196.466003 587.490356,201.699493 587.558899,206.760406 
	C587.768311,222.220978 587.940186,237.736099 586.817444,253.134521 
	C586.357056,259.448303 582.545471,265.517731 580.078003,272.010864 
M541.933228,193.581146 
	C536.815918,193.581146 531.698608,193.581146 526.487549,193.581146 
	C526.487549,216.148376 526.487549,238.361038 526.487549,260.768158 
	C531.801270,260.768158 536.778870,260.905121 541.746338,260.738281 
	C550.723877,260.436707 555.482483,256.895599 555.902344,247.944534 
	C556.556213,234.005341 556.421997,219.981247 555.684692,206.042694 
	C555.241150,197.657898 551.126099,194.542328 541.933228,193.581146 
z"/>
<path fill="#FCFCFC" opacity="1.000000" stroke="none" 
	d="
M166.972610,203.026260 
	C150.726547,186.595871 134.731140,170.414963 118.498322,153.993896 
	C124.263237,153.993896 129.858444,154.018677 135.453339,153.989349 
	C153.915085,153.892548 172.378113,153.635254 190.836914,153.817780 
	C193.636383,153.845444 197.114853,155.166367 199.095413,157.101028 
	C216.607758,174.207535 233.820602,191.620224 251.217133,208.846313 
	C253.389740,210.997635 254.077194,212.523392 251.616455,214.947510 
	C239.640335,226.745407 227.773819,238.654572 215.370422,251.020920 
	C199.261765,235.046768 183.242508,219.161255 166.972610,203.026260 
z"/>
<path fill="#FCFCFD" opacity="1.000000" stroke="none" 
	d="
M237.923767,331.928284 
	C225.193527,344.681335 212.647812,357.118927 200.274384,369.725586 
	C197.263016,372.793640 194.105148,374.006500 189.747772,373.966522 
	C166.276596,373.751068 142.802414,373.864594 120.210007,373.864594 
	C151.656570,342.053436 183.467957,309.873199 215.759766,277.207001 
	C221.185471,282.558868 226.947144,288.225525 232.689957,293.911285 
	C238.727478,299.888794 244.607468,306.034943 250.832611,311.809509 
	C253.994370,314.742432 253.670456,316.737244 250.674225,319.439056 
	C246.347214,323.340851 242.324326,327.579895 237.923767,331.928284 
z"/>
<path fill="#FCFCFC" opacity="1.000000" stroke="none" 
	d="
M298.177917,272.178223 
	C287.786743,282.517883 277.637115,292.598999 267.021545,303.142883 
	C254.432510,290.104248 241.862595,277.085388 229.423492,264.202026 
	C241.927750,252.051926 255.085327,239.266983 268.242920,226.482040 
	C268.336273,225.531647 268.429626,224.581253 268.523010,223.630859 
	C269.385132,225.240707 269.932983,227.157715 271.158813,228.412109 
	C281.509460,239.003860 291.824432,249.641006 302.512665,259.886292 
	C305.997223,263.226471 305.939636,265.365723 302.385925,268.126160 
	C300.948730,269.242523 299.734924,270.646545 298.177917,272.178223 
z"/>
<path fill="#FAFAFA" opacity="1.000000" stroke="none" 
	d="
M338.826172,324.000061 
	C338.827423,340.455933 338.827423,356.411804 338.827423,373.222412 
	C337.403381,372.135590 336.516083,371.602112 335.803070,370.893311 
	C318.326172,353.518677 300.890839,336.102081 283.375671,318.766144 
	C281.272339,316.684326 280.356995,315.076019 282.875824,312.603668 
	C294.638977,301.057648 306.298553,289.406128 318.011658,277.808990 
	C318.345490,277.478485 318.864319,277.334839 318.865631,277.334137 
	C325.161682,283.263092 331.431519,288.935669 337.358704,294.946075 
	C338.532837,296.136719 338.756653,298.618011 338.792358,300.515900 
	C338.936493,308.174774 338.835480,315.838257 338.826172,324.000061 
z"/>
<path fill="#FCFBFC" opacity="1.000000" stroke="none" 
	d="
M334.281525,236.226089 
	C329.261688,241.351578 324.497772,246.222580 319.568146,251.263016 
	C313.316833,245.086075 307.419098,239.260468 301.523651,233.432526 
	C295.363281,227.342728 289.226196,221.229126 283.032501,215.173447 
	C281.310425,213.489731 280.116425,211.994278 282.361725,209.773422 
	C300.597900,191.735886 318.794373,173.658264 337.023376,155.613510 
	C337.310791,155.329010 337.856323,155.305298 338.854370,154.963898 
	C338.854370,162.704803 338.854950,170.120712 338.854248,177.536621 
	C338.852753,193.532043 338.698822,209.529831 338.947906,225.521347 
	C339.016174,229.904907 338.042389,233.341904 334.281525,236.226089 
z"/>
<path fill="#030303" opacity="1.000000" stroke="none" 
	d="
M747.045288,208.004852 
	C747.045715,203.051468 747.045715,198.596832 747.045715,193.983566 
	C753.490845,193.983566 759.611511,193.531387 765.634216,194.105972 
	C772.144592,194.727066 776.432068,198.655273 776.929749,205.463974 
	C777.750000,216.685013 778.207520,228.037766 777.430603,239.238785 
	C776.745422,249.118698 770.485474,254.115921 760.482056,254.837021 
	C756.212219,255.144821 751.901733,254.888458 747.044861,254.888458 
	C747.044861,239.292099 747.044861,223.897842 747.045288,208.004852 
z"/>
<path fill="#060506" opacity="1.000000" stroke="none" 
	d="
M631.953735,282.831818 
	C635.477356,258.720551 638.946716,235.047562 642.387634,211.370438 
	C642.783813,208.644440 643.021179,205.895370 643.332153,203.156998 
	C643.839417,203.104477 644.346680,203.051941 644.853943,202.999420 
	C649.647888,235.556290 654.441833,268.113190 659.294128,301.066528 
	C649.055542,301.066528 639.339294,301.066528 629.182312,301.066528 
	C630.107788,294.985596 630.999390,289.127228 631.953735,282.831818 
z"/>
<path fill="#060606" opacity="1.000000" stroke="none" 
	d="
M542.371155,193.591858 
	C551.126099,194.542328 555.241150,197.657898 555.684692,206.042694 
	C556.421997,219.981247 556.556213,234.005341 555.902344,247.944534 
	C555.482483,256.895599 550.723877,260.436707 541.746338,260.738281 
	C536.778870,260.905121 531.801270,260.768158 526.487549,260.768158 
	C526.487549,238.361038 526.487549,216.148376 526.487549,193.581146 
	C531.698608,193.581146 536.815918,193.581146 542.371155,193.591858 
z"/>
</svg>